<svg width="1014" height="300" viewBox="0 0 1014 300" fill="none" xmlns="http://www.w3.org/2000/svg">
<g clip-path="url(#clip0_89_30)">
<rect x="75" y="153" width="200" height="115" fill="white"/>
<g clip-path="url(#clip1_89_30)">
<path fill-rule="evenodd" clip-rule="evenodd" d="M0 11C0 4.92488 4.92487 0 11 0H289C295.075 0 300 4.92487 300 11V289C300 295.075 295.075 300 289 300H11C4.92488 300 0 295.075 0 289V11ZM249.35 187.247C248.918 182.893 247.065 179.51 243.79 177.099C240.516 174.688 236.072 173.483 230.458 173.483C226.644 173.483 223.423 174.023 220.796 175.102C218.169 176.146 216.154 177.603 214.751 179.474C213.383 181.346 212.7 183.469 212.7 185.844C212.628 187.823 213.041 189.55 213.941 191.026C214.877 192.501 216.154 193.778 217.773 194.858C219.393 195.901 221.264 196.819 223.387 197.611C225.51 198.366 227.777 199.014 230.188 199.554L240.12 201.929C244.942 203.008 249.368 204.448 253.398 206.247C257.429 208.046 260.919 210.259 263.87 212.886C266.821 215.513 269.106 218.608 270.725 222.17C272.38 225.733 273.226 229.817 273.262 234.423C273.226 241.188 271.499 247.054 268.08 252.02C264.698 256.95 259.804 260.782 253.398 263.517C247.029 266.216 239.346 267.565 230.35 267.565C221.426 267.565 213.653 266.198 207.032 263.463C200.447 260.728 195.301 256.68 191.594 251.318C187.924 245.92 185.999 239.245 185.819 231.293H208.435C208.687 234.999 209.749 238.094 211.62 240.577C213.527 243.024 216.064 244.877 219.231 246.136C222.433 247.36 226.05 247.972 230.08 247.972C234.039 247.972 237.475 247.396 240.39 246.244C243.341 245.093 245.626 243.491 247.245 241.44C248.864 239.389 249.674 237.032 249.674 234.369C249.674 231.886 248.936 229.799 247.461 228.108C246.022 226.417 243.898 224.977 241.092 223.79C238.321 222.602 234.92 221.523 230.89 220.551L218.853 217.528C209.533 215.261 202.174 211.717 196.776 206.895C191.379 202.073 188.698 195.578 188.734 187.409C188.698 180.716 190.479 174.868 194.077 169.866C197.712 164.865 202.696 160.96 209.029 158.153C215.362 155.347 222.559 153.943 230.62 153.943C238.825 153.943 245.986 155.347 252.103 158.153C258.256 160.96 263.042 164.865 266.461 169.866C269.88 174.868 271.643 180.662 271.751 187.247H249.35ZM170.071 266V155.454H146.807V224.977H145.835L98.1193 155.454H77.608V266H100.98V196.423H101.79L149.884 266H170.071Z" fill="#8331C6"/>
</g>
<mask id="mask0_89_30" style="mask-type:alpha" maskUnits="userSpaceOnUse" x="300" y="47" width="758" height="246">
<rect width="758" height="246" transform="matrix(-1 0 0 1 1058 47)" fill="#D9D9D9"/>
</mask>
<g mask="url(#mask0_89_30)">
<path d="M960.853 216.846C953.47 216.846 946.795 215.646 940.827 213.247C934.921 210.786 929.876 207.371 925.692 203.003C921.57 198.635 918.402 193.498 916.187 187.591C913.972 181.685 912.865 175.317 912.865 168.488V164.797C912.865 156.983 914.003 149.908 916.279 143.571C918.556 137.234 921.724 131.82 925.785 127.329C929.845 122.776 934.644 119.3 940.181 116.901C945.718 114.501 951.717 113.302 958.177 113.302C965.313 113.302 971.558 114.501 976.911 116.901C982.263 119.3 986.693 122.684 990.2 127.052C993.768 131.359 996.414 136.496 998.136 142.464C999.92 148.432 1000.81 155.015 1000.81 162.213V171.718H923.662V155.753H978.849V154C978.726 150 977.926 146.248 976.449 142.741C975.034 139.234 972.85 136.404 969.897 134.25C966.944 132.097 963.006 131.021 958.084 131.021C954.393 131.021 951.102 131.82 948.21 133.42C945.38 134.958 943.011 137.204 941.104 140.157C939.197 143.11 937.72 146.678 936.674 150.862C935.69 154.984 935.198 159.629 935.198 164.797V168.488C935.198 172.856 935.782 176.917 936.951 180.67C938.182 184.361 939.966 187.591 942.304 190.36C944.642 193.128 947.472 195.312 950.794 196.912C954.116 198.45 957.9 199.219 962.145 199.219C967.498 199.219 972.266 198.143 976.449 195.989C980.633 193.836 984.263 190.791 987.339 186.853L999.059 198.204C996.906 201.342 994.106 204.356 990.661 207.248C987.216 210.078 983.001 212.385 978.018 214.169C973.096 215.954 967.375 216.846 960.853 216.846Z" fill="white"/>
<path d="M858.878 199.127C862.508 199.127 865.769 198.419 868.66 197.004C871.613 195.528 873.982 193.498 875.766 190.914C877.612 188.33 878.627 185.346 878.812 181.962H899.76C899.637 188.422 897.73 194.297 894.039 199.588C890.347 204.879 885.456 209.094 879.365 212.231C873.274 215.308 866.538 216.846 859.155 216.846C851.526 216.846 844.881 215.554 839.221 212.97C833.561 210.324 828.854 206.694 825.102 202.08C821.349 197.466 818.519 192.144 816.611 186.115C814.766 180.085 813.843 173.625 813.843 166.735V163.505C813.843 156.614 814.766 150.154 816.611 144.125C818.519 138.034 821.349 132.682 825.102 128.067C828.854 123.453 833.561 119.854 839.221 117.27C844.881 114.625 851.495 113.302 859.062 113.302C867.061 113.302 874.074 114.901 880.104 118.101C886.133 121.238 890.87 125.637 894.315 131.297C897.822 136.896 899.637 143.417 899.76 150.862H878.812C878.627 147.17 877.704 143.848 876.043 140.895C874.443 137.88 872.167 135.481 869.214 133.697C866.322 131.913 862.846 131.021 858.786 131.021C854.294 131.021 850.572 131.943 847.619 133.789C844.666 135.573 842.359 138.034 840.698 141.172C839.037 144.248 837.837 147.724 837.099 151.6C836.422 155.415 836.083 159.383 836.083 163.505V166.735C836.083 170.857 836.422 174.856 837.099 178.732C837.775 182.608 838.944 186.084 840.605 189.16C842.328 192.175 844.666 194.605 847.619 196.451C850.572 198.235 854.325 199.127 858.878 199.127Z" fill="white"/>
<path d="M772.499 194.974V147.355C772.499 143.787 771.853 140.71 770.561 138.126C769.269 135.542 767.3 133.543 764.655 132.128C762.071 130.713 758.81 130.005 754.873 130.005C751.243 130.005 748.105 130.621 745.459 131.851C742.814 133.082 740.753 134.743 739.276 136.834C737.8 138.926 737.062 141.295 737.062 143.94H714.913C714.913 140.003 715.867 136.188 717.774 132.497C719.681 128.806 722.45 125.514 726.08 122.623C729.709 119.731 734.047 117.455 739.092 115.793C744.137 114.132 749.797 113.302 756.072 113.302C763.578 113.302 770.223 114.563 776.006 117.085C781.851 119.608 786.434 123.422 789.756 128.529C793.14 133.574 794.832 139.911 794.832 147.54V191.929C794.832 196.481 795.14 200.573 795.755 204.203C796.432 207.771 797.385 210.878 798.616 213.523V215H775.821C774.775 212.601 773.945 209.555 773.33 205.864C772.776 202.111 772.499 198.481 772.499 194.974ZM775.729 154.276L775.914 168.027H759.948C755.826 168.027 752.196 168.427 749.059 169.227C745.921 169.965 743.306 171.072 741.214 172.549C739.123 174.025 737.554 175.81 736.508 177.901C735.462 179.993 734.939 182.362 734.939 185.007C734.939 187.653 735.554 190.083 736.785 192.298C738.015 194.451 739.799 196.143 742.137 197.374C744.537 198.604 747.428 199.219 750.812 199.219C755.365 199.219 759.333 198.296 762.717 196.451C766.162 194.543 768.869 192.236 770.838 189.529C772.807 186.761 773.853 184.146 773.976 181.685L781.174 191.56C780.436 194.082 779.174 196.789 777.39 199.681C775.606 202.572 773.268 205.341 770.376 207.986C767.546 210.57 764.132 212.693 760.133 214.354C756.195 216.015 751.643 216.846 746.475 216.846C739.953 216.846 734.139 215.554 729.033 212.97C723.926 210.324 719.927 206.787 717.036 202.357C714.144 197.866 712.698 192.79 712.698 187.13C712.698 181.839 713.683 177.163 715.651 173.103C717.682 168.98 720.635 165.535 724.511 162.767C728.448 159.998 733.247 157.906 738.907 156.491C744.567 155.015 751.027 154.276 758.287 154.276H775.729Z" fill="white"/>
<path d="M632.226 134.343V253.391H609.985V115.147H630.472L632.226 134.343ZM697.287 164.151V166.089C697.287 173.349 696.425 180.085 694.703 186.299C693.042 192.452 690.55 197.835 687.228 202.449C683.967 207.002 679.937 210.54 675.138 213.062C670.339 215.584 664.802 216.846 658.527 216.846C652.313 216.846 646.868 215.708 642.192 213.431C637.578 211.093 633.671 207.802 630.472 203.557C627.273 199.312 624.689 194.328 622.72 188.606C620.813 182.823 619.459 176.486 618.66 169.596V162.121C619.459 154.799 620.813 148.155 622.72 142.187C624.689 136.219 627.273 131.082 630.472 126.775C633.671 122.469 637.578 119.146 642.192 116.809C646.807 114.471 652.19 113.302 658.342 113.302C664.618 113.302 670.186 114.532 675.046 116.993C679.906 119.393 683.998 122.838 687.32 127.329C690.642 131.759 693.134 137.111 694.795 143.387C696.456 149.601 697.287 156.522 697.287 164.151ZM675.046 166.089V164.151C675.046 159.537 674.615 155.261 673.754 151.323C672.893 147.324 671.539 143.817 669.693 140.803C667.848 137.788 665.479 135.45 662.587 133.789C659.757 132.066 656.343 131.205 652.344 131.205C648.406 131.205 645.022 131.882 642.192 133.235C639.362 134.527 636.994 136.342 635.086 138.68C633.179 141.018 631.703 143.756 630.657 146.894C629.611 149.97 628.873 153.323 628.442 156.953V174.856C629.18 179.286 630.441 183.346 632.226 187.038C634.01 190.729 636.532 193.682 639.793 195.897C643.115 198.05 647.36 199.127 652.528 199.127C656.527 199.127 659.942 198.266 662.772 196.543C665.602 194.82 667.909 192.452 669.693 189.437C671.539 186.361 672.893 182.823 673.754 178.824C674.615 174.825 675.046 170.58 675.046 166.089Z" fill="white"/>
<path d="M568.641 187.96C568.641 185.746 568.087 183.746 566.98 181.962C565.873 180.116 563.75 178.455 560.612 176.979C557.536 175.502 552.983 174.148 546.954 172.918C541.663 171.749 536.803 170.365 532.373 168.765C528.005 167.104 524.252 165.104 521.114 162.767C517.977 160.429 515.546 157.66 513.824 154.461C512.101 151.262 511.24 147.57 511.24 143.387C511.24 139.326 512.132 135.481 513.916 131.851C515.7 128.221 518.253 125.022 521.576 122.253C524.898 119.485 528.928 117.301 533.665 115.701C538.464 114.102 543.816 113.302 549.723 113.302C558.09 113.302 565.257 114.717 571.225 117.547C577.254 120.315 581.869 124.099 585.068 128.898C588.267 133.635 589.867 138.988 589.867 144.956H567.626C567.626 142.31 566.949 139.849 565.596 137.573C564.304 135.235 562.335 133.358 559.689 131.943C557.044 130.467 553.722 129.729 549.723 129.729C545.908 129.729 542.74 130.344 540.217 131.574C537.756 132.743 535.911 134.281 534.68 136.188C533.511 138.096 532.927 140.188 532.927 142.464C532.927 144.125 533.234 145.632 533.85 146.986C534.526 148.278 535.634 149.478 537.172 150.585C538.71 151.631 540.802 152.615 543.447 153.538C546.154 154.461 549.538 155.353 553.599 156.214C561.228 157.814 567.78 159.875 573.255 162.397C578.792 164.858 583.038 168.058 585.991 171.995C588.944 175.871 590.42 180.793 590.42 186.761C590.42 191.19 589.467 195.251 587.56 198.942C585.714 202.572 583.007 205.741 579.438 208.448C575.87 211.093 571.594 213.154 566.611 214.631C561.689 216.107 556.152 216.846 550 216.846C540.956 216.846 533.296 215.246 527.021 212.047C520.745 208.786 515.977 204.633 512.716 199.588C509.517 194.482 507.917 189.191 507.917 183.715H529.42C529.666 187.837 530.804 191.129 532.834 193.59C534.926 195.989 537.51 197.743 540.586 198.85C543.724 199.896 546.954 200.419 550.276 200.419C554.275 200.419 557.628 199.896 560.335 198.85C563.042 197.743 565.104 196.266 566.519 194.42C567.934 192.513 568.641 190.36 568.641 187.96Z" fill="white"/>
<path d="M401.144 166.181V164.059C401.144 156.86 402.189 150.185 404.281 144.033C406.373 137.819 409.388 132.436 413.325 127.883C417.324 123.269 422.185 119.7 427.906 117.178C433.689 114.594 440.211 113.302 447.471 113.302C454.792 113.302 461.313 114.594 467.035 117.178C472.818 119.7 477.709 123.269 481.708 127.883C485.708 132.436 488.753 137.819 490.845 144.033C492.937 150.185 493.982 156.86 493.982 164.059V166.181C493.982 173.379 492.937 180.055 490.845 186.207C488.753 192.359 485.708 197.743 481.708 202.357C477.709 206.91 472.849 210.478 467.127 213.062C461.406 215.584 454.915 216.846 447.655 216.846C440.334 216.846 433.782 215.584 427.999 213.062C422.277 210.478 417.417 206.91 413.417 202.357C409.418 197.743 406.373 192.359 404.281 186.207C402.189 180.055 401.144 173.379 401.144 166.181ZM423.384 164.059V166.181C423.384 170.672 423.846 174.917 424.769 178.917C425.691 182.916 427.137 186.422 429.106 189.437C431.075 192.452 433.597 194.82 436.673 196.543C439.75 198.266 443.41 199.127 447.655 199.127C451.777 199.127 455.346 198.266 458.36 196.543C461.437 194.82 463.959 192.452 465.928 189.437C467.896 186.422 469.342 182.916 470.265 178.917C471.25 174.917 471.742 170.672 471.742 166.181V164.059C471.742 159.629 471.25 155.445 470.265 151.508C469.342 147.509 467.866 143.971 465.835 140.895C463.867 137.819 461.344 135.419 458.268 133.697C455.253 131.913 451.654 131.021 447.471 131.021C443.287 131.021 439.657 131.913 436.581 133.697C433.566 135.419 431.075 137.819 429.106 140.895C427.137 143.971 425.691 147.509 424.769 151.508C423.846 155.445 423.384 159.629 423.384 164.059Z" fill="white"/>
<path d="M322.24 136.465V215H299.999V115.147H320.948L322.24 136.465ZM318.271 161.382L311.073 161.29C311.135 154.215 312.119 147.724 314.026 141.818C315.995 135.912 318.702 130.836 322.147 126.591C325.654 122.346 329.838 119.085 334.698 116.809C339.559 114.471 344.973 113.302 350.94 113.302C355.739 113.302 360.077 113.979 363.953 115.332C367.89 116.624 371.243 118.747 374.012 121.7C376.842 124.653 378.995 128.498 380.472 133.235C381.948 137.911 382.687 143.664 382.687 150.493V215H360.354V150.4C360.354 145.602 359.646 141.818 358.231 139.049C356.877 136.219 354.878 134.22 352.232 133.051C349.648 131.82 346.418 131.205 342.542 131.205C338.728 131.205 335.313 132.005 332.299 133.604C329.284 135.204 326.731 137.388 324.639 140.157C322.609 142.925 321.04 146.125 319.933 149.754C318.825 153.384 318.271 157.26 318.271 161.382Z" fill="white"/>
</g>
</g>
<defs>
<clipPath id="clip0_89_30">
<rect width="1014" height="300" fill="white"/>
</clipPath>
<clipPath id="clip1_89_30">
<rect width="300" height="300" rx="28" fill="white"/>
</clipPath>
</defs>
</svg>
