<svg width="300" height="300" viewBox="0 0 300 300" fill="none" xmlns="http://www.w3.org/2000/svg">
  <g clip-path="url(#clip0_44_11)">
    <rect width="300" height="300" rx="11" fill="#8331C6" />
    <path
      d="M254.432 182.331C253.935 177.318 251.801 173.423 248.031 170.647C244.261 167.872 239.144 166.484 232.681 166.484C228.29 166.484 224.582 167.105 221.557 168.348C218.533 169.549 216.213 171.227 214.597 173.382C213.023 175.536 212.236 177.98 212.236 180.715C212.153 182.993 212.629 184.982 213.665 186.681C214.742 188.379 216.213 189.85 218.077 191.093C219.941 192.294 222.096 193.351 224.54 194.262C226.985 195.132 229.595 195.878 232.37 196.5L243.805 199.234C249.357 200.477 254.453 202.134 259.093 204.206C263.733 206.277 267.752 208.825 271.149 211.849C274.546 214.874 277.177 218.437 279.041 222.538C280.947 226.64 281.921 231.342 281.962 236.645C281.921 244.434 279.932 251.187 275.996 256.904C272.102 262.58 266.467 266.993 259.093 270.141C251.76 273.249 242.914 274.802 232.557 274.802C222.282 274.802 213.333 273.228 205.71 270.079C198.129 266.93 192.204 262.27 187.937 256.097C183.711 249.882 181.495 242.197 181.287 233.041H207.326C207.616 237.308 208.838 240.871 210.993 243.73C213.188 246.547 216.109 248.681 219.755 250.131C223.442 251.539 227.606 252.244 232.246 252.244C236.803 252.244 240.76 251.581 244.116 250.255C247.513 248.929 250.144 247.086 252.008 244.724C253.873 242.363 254.805 239.649 254.805 236.583C254.805 233.724 253.955 231.321 252.257 229.374C250.6 227.427 248.155 225.77 244.924 224.403C241.734 223.035 237.818 221.793 233.178 220.674L219.32 217.194C208.59 214.584 200.117 210.503 193.903 204.951C187.688 199.4 184.602 191.922 184.643 182.517C184.602 174.811 186.653 168.079 190.796 162.32C194.98 156.561 200.718 152.066 208.01 148.834C215.301 145.603 223.587 143.987 232.868 143.987C242.314 143.987 250.558 145.603 257.601 148.834C264.686 152.066 270.196 156.561 274.132 162.32C278.068 168.079 280.098 174.749 280.222 182.331H254.432Z"
      fill="white" />
    <path
      d="M163.157 145.727V273H139.914L84.5433 192.895H83.6111V273H56.7024V145.727H80.3175L135.254 225.77H136.372V145.727H163.157Z"
      fill="white" />
  </g>
  <defs>
    <clipPath id="clip0_44_11">
      <rect width="300" height="300" fill="white" />
    </clipPath>
  </defs>
</svg>
