<svg width="1154" height="403" viewBox="0 0 1154 403" fill="none" xmlns="http://www.w3.org/2000/svg">
<g clip-path="url(#clip0_351_164)">
<g clip-path="url(#clip1_351_164)">
<path fill-rule="evenodd" clip-rule="evenodd" d="M0 53C0 46.9249 4.92487 42 11 42H289C295.075 42 300 46.9249 300 53V331C300 337.075 295.075 342 289 342H11C4.92488 342 0 337.075 0 331V53ZM249.35 229.247C248.918 224.893 247.065 221.51 243.79 219.099C240.516 216.688 236.072 215.483 230.458 215.483C226.644 215.483 223.423 216.023 220.796 217.102C218.169 218.146 216.154 219.603 214.751 221.474C213.383 223.346 212.7 225.469 212.7 227.844C212.628 229.823 213.041 231.55 213.941 233.026C214.877 234.501 216.154 235.778 217.773 236.858C219.393 237.901 221.264 238.819 223.387 239.611C225.51 240.366 227.777 241.014 230.188 241.554L240.12 243.929C244.942 245.008 249.368 246.448 253.398 248.247C257.429 250.046 260.919 252.259 263.87 254.886C266.821 257.513 269.106 260.608 270.725 264.17C272.38 267.733 273.226 271.817 273.262 276.423C273.226 283.188 271.499 289.054 268.08 294.02C264.698 298.95 259.804 302.782 253.398 305.517C247.029 308.216 239.346 309.565 230.35 309.565C221.426 309.565 213.653 308.198 207.032 305.463C200.447 302.728 195.301 298.68 191.594 293.318C187.924 287.92 185.999 281.245 185.819 273.293H208.435C208.687 276.999 209.749 280.094 211.62 282.577C213.527 285.024 216.064 286.877 219.231 288.136C222.433 289.36 226.05 289.972 230.08 289.972C234.039 289.972 237.475 289.396 240.39 288.244C243.341 287.093 245.626 285.491 247.245 283.44C248.864 281.389 249.674 279.032 249.674 276.369C249.674 273.886 248.936 271.799 247.461 270.108C246.022 268.417 243.898 266.977 241.092 265.79C238.321 264.602 234.92 263.523 230.89 262.551L218.853 259.528C209.533 257.261 202.174 253.717 196.776 248.895C191.379 244.073 188.698 237.578 188.734 229.409C188.698 222.716 190.479 216.868 194.077 211.866C197.712 206.865 202.696 202.96 209.029 200.153C215.362 197.347 222.559 195.943 230.62 195.943C238.825 195.943 245.986 197.347 252.103 200.153C258.256 202.96 263.042 206.865 266.461 211.866C269.88 216.868 271.643 222.662 271.751 229.247H249.35ZM170.071 308V197.454H146.807V266.977H145.835L98.1193 197.454H77.608V308H100.98V238.423H101.79L149.884 308H170.071Z" fill="white"/>
</g>
<path d="M1105.19 272.472C1096.17 272.472 1088.02 271.007 1080.73 268.076C1073.52 265.07 1067.36 260.9 1062.25 255.564C1057.21 250.229 1053.34 243.954 1050.64 236.74C1047.93 229.526 1046.58 221.748 1046.58 213.407V208.898C1046.58 199.354 1047.97 190.712 1050.75 182.972C1053.53 175.232 1057.4 168.619 1062.36 163.134C1067.32 157.573 1073.18 153.327 1079.94 150.396C1086.71 147.465 1094.03 146 1101.92 146C1110.64 146 1118.27 147.465 1124.81 150.396C1131.34 153.327 1136.75 157.46 1141.04 162.795C1145.4 168.056 1148.63 174.33 1150.73 181.62C1152.91 188.909 1154 196.95 1154 205.742V217.352H1059.77V197.851H1127.17V195.71C1127.02 190.825 1126.05 186.241 1124.24 181.958C1122.51 177.674 1119.85 174.218 1116.24 171.588C1112.63 168.957 1107.82 167.642 1101.81 167.642C1097.3 167.642 1093.28 168.619 1089.75 170.573C1086.29 172.452 1083.4 175.195 1081.07 178.802C1078.74 182.409 1076.94 186.767 1075.66 191.877C1074.46 196.912 1073.86 202.586 1073.86 208.898V213.407C1073.86 218.742 1074.57 223.702 1076 228.286C1077.5 232.795 1079.68 236.74 1082.54 240.122C1085.39 243.503 1088.85 246.171 1092.91 248.125C1096.96 250.004 1101.59 250.943 1106.77 250.943C1113.31 250.943 1119.13 249.628 1124.24 246.998C1129.35 244.367 1133.79 240.648 1137.54 235.838L1151.86 249.703C1149.23 253.535 1145.81 257.218 1141.6 260.75C1137.39 264.206 1132.25 267.024 1126.16 269.204C1120.15 271.383 1113.16 272.472 1105.19 272.472Z" fill="white"/>
<path d="M980.636 250.83C985.069 250.83 989.052 249.966 992.584 248.238C996.191 246.434 999.084 243.954 1001.26 240.798C1003.52 237.642 1004.76 233.997 1004.98 229.864H1030.57C1030.42 237.755 1028.09 244.931 1023.58 251.394C1019.07 257.856 1013.1 263.004 1005.66 266.836C998.22 270.594 989.992 272.472 980.974 272.472C971.656 272.472 963.54 270.894 956.626 267.738C949.713 264.507 943.964 260.073 939.38 254.437C934.796 248.801 931.339 242.301 929.01 234.937C926.755 227.572 925.628 219.682 925.628 211.265V207.32C925.628 198.904 926.755 191.013 929.01 183.649C931.339 176.209 934.796 169.671 939.38 164.035C943.964 158.399 949.713 154.003 956.626 150.847C963.54 147.616 971.618 146 980.861 146C990.63 146 999.197 147.954 1006.56 151.861C1013.93 155.694 1019.71 161.067 1023.92 167.981C1028.2 174.819 1030.42 182.784 1030.57 191.877H1004.98C1004.76 187.368 1003.63 183.311 1001.6 179.703C999.648 176.021 996.868 173.091 993.261 170.911C989.729 168.732 985.483 167.642 980.523 167.642C975.037 167.642 970.491 168.77 966.884 171.024C963.277 173.203 960.459 176.209 958.43 180.042C956.401 183.799 954.936 188.045 954.034 192.779C953.207 197.438 952.794 202.285 952.794 207.32V211.265C952.794 216.3 953.207 221.185 954.034 225.919C954.86 230.653 956.288 234.899 958.317 238.656C960.421 242.339 963.277 245.307 966.884 247.561C970.491 249.74 975.075 250.83 980.636 250.83Z" fill="white"/>
<path d="M875.129 245.758V187.594C875.129 183.235 874.34 179.478 872.762 176.322C871.184 173.166 868.779 170.723 865.548 168.995C862.392 167.267 858.409 166.402 853.6 166.402C849.166 166.402 845.334 167.154 842.102 168.657C838.871 170.16 836.353 172.189 834.55 174.744C832.746 177.299 831.845 180.192 831.845 183.423H804.792C804.792 178.614 805.956 173.955 808.286 169.446C810.616 164.937 813.997 160.917 818.431 157.385C822.865 153.853 828.162 151.072 834.325 149.043C840.487 147.014 847.4 146 855.065 146C864.233 146 872.349 147.541 879.413 150.622C886.552 153.703 892.15 158.362 896.208 164.599C900.341 170.761 902.408 178.501 902.408 187.819V242.038C902.408 247.599 902.783 252.596 903.535 257.03C904.362 261.388 905.526 265.183 907.029 268.415V270.218H879.187C877.91 267.287 876.895 263.568 876.144 259.059C875.468 254.475 875.129 250.041 875.129 245.758ZM879.075 196.048L879.3 212.843H859.799C854.765 212.843 850.331 213.332 846.498 214.309C842.666 215.21 839.472 216.563 836.917 218.367C834.362 220.17 832.446 222.349 831.168 224.904C829.891 227.459 829.252 230.353 829.252 233.584C829.252 236.815 830.004 239.784 831.506 242.489C833.009 245.119 835.189 247.185 838.044 248.688C840.975 250.191 844.507 250.943 848.64 250.943C854.201 250.943 859.048 249.816 863.181 247.561C867.389 245.232 870.696 242.414 873.1 239.107C875.505 235.726 876.783 232.532 876.933 229.526L885.725 241.587C884.823 244.668 883.283 247.975 881.104 251.506C878.924 255.038 876.069 258.42 872.537 261.651C869.08 264.807 864.909 267.4 860.025 269.429C855.215 271.458 849.655 272.472 843.342 272.472C835.377 272.472 828.275 270.894 822.038 267.738C815.801 264.507 810.916 260.186 807.384 254.775C803.852 249.29 802.086 243.09 802.086 236.176C802.086 229.714 803.289 224.003 805.693 219.043C808.173 214.008 811.78 209.8 816.515 206.418C821.324 203.037 827.186 200.482 834.099 198.753C841.013 196.95 848.903 196.048 857.77 196.048H879.075Z" fill="white"/>
<path d="M703.794 171.7V317.11H676.628V148.254H701.652L703.794 171.7ZM783.262 208.109V210.476C783.262 219.344 782.21 227.572 780.106 235.162C778.077 242.677 775.033 249.252 770.976 254.888C766.993 260.449 762.071 264.77 756.209 267.851C750.348 270.932 743.584 272.472 735.919 272.472C728.33 272.472 721.679 271.082 715.968 268.302C710.332 265.446 705.56 261.426 701.652 256.241C697.745 251.056 694.589 244.969 692.184 237.98C689.854 230.916 688.201 223.176 687.224 214.76V205.629C688.201 196.687 689.854 188.571 692.184 181.282C694.589 173.992 697.745 167.717 701.652 162.457C705.56 157.197 710.332 153.139 715.968 150.283C721.604 147.428 728.179 146 735.694 146C743.359 146 750.16 147.503 756.096 150.509C762.033 153.44 767.03 157.648 771.088 163.134C775.146 168.544 778.19 175.082 780.219 182.747C782.248 190.337 783.262 198.791 783.262 208.109ZM756.096 210.476V208.109C756.096 202.473 755.57 197.25 754.518 192.441C753.466 187.556 751.813 183.273 749.559 179.591C747.304 175.909 744.411 173.053 740.879 171.024C737.422 168.92 733.252 167.868 728.367 167.868C723.558 167.868 719.425 168.694 715.968 170.348C712.511 171.926 709.618 174.143 707.288 176.998C704.959 179.854 703.155 183.198 701.878 187.03C700.6 190.788 699.699 194.883 699.173 199.317V221.185C700.074 226.595 701.615 231.555 703.794 236.064C705.973 240.573 709.054 244.18 713.037 246.885C717.095 249.515 722.28 250.83 728.593 250.83C733.477 250.83 737.648 249.778 741.105 247.674C744.561 245.57 747.379 242.677 749.559 238.994C751.813 235.237 753.466 230.916 754.518 226.032C755.57 221.147 756.096 215.962 756.096 210.476Z" fill="white"/>
<path d="M626.13 237.191C626.13 234.486 625.453 232.043 624.101 229.864C622.748 227.61 620.155 225.581 616.323 223.777C612.566 221.974 607.005 220.32 599.64 218.817C593.178 217.39 587.241 215.699 581.83 213.745C576.495 211.716 571.911 209.274 568.079 206.418C564.246 203.563 561.278 200.181 559.174 196.273C557.069 192.366 556.017 187.857 556.017 182.747C556.017 177.787 557.107 173.091 559.286 168.657C561.466 164.223 564.584 160.316 568.642 156.934C572.7 153.552 577.622 150.885 583.409 148.931C589.27 146.977 595.808 146 603.022 146C613.242 146 621.997 147.728 629.286 151.185C636.65 154.567 642.286 159.188 646.194 165.05C650.102 170.836 652.055 177.374 652.055 184.663H624.89C624.89 181.432 624.063 178.426 622.41 175.646C620.832 172.79 618.427 170.498 615.196 168.77C611.964 166.966 607.906 166.064 603.022 166.064C598.363 166.064 594.493 166.816 591.412 168.319C588.406 169.746 586.151 171.625 584.648 173.955C583.221 176.284 582.507 178.839 582.507 181.62C582.507 183.649 582.882 185.49 583.634 187.143C584.461 188.721 585.813 190.186 587.692 191.539C589.571 192.817 592.126 194.019 595.357 195.146C598.663 196.273 602.796 197.363 607.756 198.415C617.074 200.369 625.078 202.886 631.766 205.967C638.529 208.973 643.714 212.881 647.321 217.69C650.928 222.425 652.732 228.436 652.732 235.726C652.732 241.136 651.567 246.096 649.237 250.605C646.983 255.038 643.676 258.908 639.318 262.215C634.959 265.446 629.737 267.964 623.65 269.767C617.638 271.571 610.875 272.472 603.36 272.472C592.313 272.472 582.958 270.519 575.293 266.611C567.628 262.628 561.804 257.556 557.821 251.394C553.913 245.157 551.959 238.694 551.959 232.006H578.223C578.524 237.041 579.914 241.061 582.394 244.067C584.949 246.998 588.105 249.139 591.863 250.492C595.695 251.769 599.64 252.408 603.698 252.408C608.583 252.408 612.678 251.769 615.985 250.492C619.291 249.139 621.809 247.336 623.537 245.081C625.265 242.752 626.13 240.122 626.13 237.191Z" fill="white"/>
<path d="M421.542 210.589V207.996C421.542 199.204 422.819 191.051 425.374 183.536C427.929 175.946 431.611 169.371 436.421 163.81C441.305 158.174 447.242 153.815 454.231 150.734C461.295 147.578 469.26 146 478.127 146C487.07 146 495.036 147.578 502.024 150.734C509.088 153.815 515.062 158.174 519.947 163.81C524.831 169.371 528.551 175.946 531.106 183.536C533.661 191.051 534.939 199.204 534.939 207.996V210.589C534.939 219.381 533.661 227.535 531.106 235.049C528.551 242.564 524.831 249.139 519.947 254.775C515.062 260.336 509.126 264.695 502.137 267.851C495.148 270.932 487.22 272.472 478.353 272.472C469.41 272.472 461.407 270.932 454.343 267.851C447.355 264.695 441.418 260.336 436.534 254.775C431.649 249.139 427.929 242.564 425.374 235.049C422.819 227.535 421.542 219.381 421.542 210.589ZM448.707 207.996V210.589C448.707 216.075 449.271 221.26 450.398 226.144C451.525 231.029 453.291 235.312 455.696 238.994C458.101 242.677 461.182 245.57 464.939 247.674C468.697 249.778 473.168 250.83 478.353 250.83C483.388 250.83 487.746 249.778 491.429 247.674C495.186 245.57 498.267 242.677 500.672 238.994C503.076 235.312 504.842 231.029 505.969 226.144C507.172 221.26 507.773 216.075 507.773 210.589V207.996C507.773 202.586 507.172 197.476 505.969 192.666C504.842 187.782 503.039 183.461 500.559 179.703C498.154 175.946 495.073 173.015 491.316 170.911C487.634 168.732 483.237 167.642 478.127 167.642C473.017 167.642 468.584 168.732 464.826 170.911C461.144 173.015 458.101 175.946 455.696 179.703C453.291 183.461 451.525 187.782 450.398 192.666C449.271 197.476 448.707 202.586 448.707 207.996Z" fill="white"/>
<path d="M325.166 174.293V270.218H298V148.254H323.588L325.166 174.293ZM320.319 204.727L311.526 204.615C311.602 195.973 312.804 188.045 315.134 180.831C317.538 173.617 320.845 167.417 325.053 162.232C329.336 157.047 334.446 153.064 340.383 150.283C346.32 147.428 352.932 146 360.222 146C366.083 146 371.381 146.827 376.115 148.48C380.925 150.058 385.02 152.651 388.402 156.258C391.859 159.865 394.489 164.561 396.292 170.348C398.096 176.059 398.998 183.085 398.998 191.426V270.218H371.719V191.314C371.719 185.452 370.855 180.831 369.127 177.449C367.473 173.992 365.031 171.55 361.8 170.122C358.644 168.619 354.698 167.868 349.964 167.868C345.305 167.868 341.134 168.845 337.452 170.799C333.77 172.752 330.651 175.42 328.096 178.802C325.617 182.183 323.7 186.091 322.348 190.525C320.995 194.958 320.319 199.693 320.319 204.727Z" fill="white"/>
</g>
<defs>
<clipPath id="clip0_351_164">
<rect width="1154" height="403" fill="white"/>
</clipPath>
<clipPath id="clip1_351_164">
<rect width="300" height="300" fill="white" transform="translate(0 42)"/>
</clipPath>
</defs>
</svg>
